<?xml version="1.0" encoding="utf-8"?>
<svg xmlns="http://www.w3.org/2000/svg" style="margin: auto; background: none; display: block; shape-rendering: auto;" width="75" height="22" preserveAspectRatio="xMidYMid">
<style type="text/css">
  text {
    text-anchor: middle; font-size: 26px; opacity: 0;
  }
</style>
<g style="transform-origin: 37.5px 11px; transform: scale(0.325);">
<g transform="translate(37.5,11)">
  <g transform="translate(0,0)"><g class="path" style="transform: matrix(1, 0, 0, 1, 0, 0); transform-origin: -78.38px -4.3409px; animation: 10s linear -4.95s infinite normal forwards running tremble-e26b515a-dd98-47e2-a5f7-4b7334b4e6af;"><path d="M46.64-40.90L41.91-40.90L40.78-48.40L40.78-48.40Q40.66-49.02 40.33-49.39L40.33-49.39L40.33-49.39Q40-49.77 39.45-49.77L39.45-49.77L28.01-49.77L28.01-5.51L28.01-5.51Q28.01-4.92 28.42-4.38L28.42-4.38L28.42-4.38Q28.83-3.83 29.69-3.75L29.69-3.75L34.80-3.44L34.80 0L13.13 0L13.13-3.44L18.24-3.75L18.24-3.75Q19.10-3.83 19.51-4.38L19.51-4.38L19.51-4.38Q19.92-4.92 19.92-5.51L19.92-5.51L19.92-49.77L8.40-49.77L8.40-49.77Q7.85-49.77 7.48-49.39L7.48-49.39L7.48-49.39Q7.11-49.02 7.03-48.40L7.03-48.40L5.94-40.90L1.29-40.90L1.29-53.67L46.64-53.67L46.64-40.90" fill="#000000" stroke="none" stroke-width="none" transform="translate(-102.34500122070312,22.494096984863283)" style="fill: rgb(0, 0, 0);"></path></g><g class="path" style="transform: matrix(1, 0, 0, 1, 0, 0); transform-origin: -31.78px -6.9809px; animation: 10s linear -3.3s infinite normal forwards running tremble-e26b515a-dd98-47e2-a5f7-4b7334b4e6af;"><path d="M91.99 0L74.18 0L74.18-3.13L77.46-3.36L77.46-3.36Q78.16-3.44 78.69-3.91L78.69-3.91L78.69-3.91Q79.22-4.38 79.22-5.12L79.22-5.12L79.22-25.74L79.22-25.74Q79.22-27.46 78.85-28.91L78.85-28.91L78.85-28.91Q78.48-30.35 77.56-31.41L77.56-31.41L77.56-31.41Q76.64-32.46 75.12-33.07L75.12-33.07L75.12-33.07Q73.59-33.67 71.29-33.67L71.29-33.67L71.29-33.67Q70.23-33.67 69.06-33.50L69.06-33.50L69.06-33.50Q67.89-33.32 66.74-33.01L66.74-33.01L66.74-33.01Q65.59-32.70 64.51-32.27L64.51-32.27L64.51-32.27Q63.44-31.84 62.58-31.37L62.58-31.37L62.58-5.12L62.58-5.12Q62.58-4.38 63.01-3.91L63.01-3.91L63.01-3.91Q63.44-3.44 64.18-3.36L64.18-3.36L67.62-3.13L67.62 0L49.61 0L49.61-3.13L53.44-3.36L53.44-3.36Q54.18-3.44 54.65-3.91L54.65-3.91L54.65-3.91Q55.12-4.38 55.12-5.12L55.12-5.12L55.12-53.20L49.14-53.20L49.14-55.86L59.38-58.95L62.58-58.95L62.58-34.57L62.58-34.57Q63.67-35.23 65.27-36.09L65.27-36.09L65.27-36.09Q66.88-36.95 68.69-37.71L68.69-37.71L68.69-37.71Q70.51-38.48 72.36-39.00L72.36-39.00L72.36-39.00Q74.22-39.53 75.78-39.53L75.78-39.53L75.78-39.53Q78.09-39.53 80.06-38.79L80.06-38.79L80.06-38.79Q82.03-38.05 83.50-36.56L83.50-36.56L83.50-36.56Q84.96-35.08 85.80-32.79L85.80-32.79L85.80-32.79Q86.64-30.51 86.64-27.42L86.64-27.42L86.64-5.12L86.64-5.12Q86.64-4.38 87.17-3.91L87.17-3.91L87.17-3.91Q87.70-3.44 88.40-3.36L88.40-3.36L91.99-3.13L91.99 0" fill="#000000" stroke="none" stroke-width="none" transform="translate(-102.34500122070312,22.494096984863283)" style="fill: rgb(0, 0, 0);"></path></g><g class="path" style="transform: matrix(1, 0, 0, 1, 0, 0); transform-origin: 11.13px 3.2191px; animation: 10s linear -1.65s infinite normal forwards running tremble-e26b515a-dd98-47e2-a5f7-4b7334b4e6af;"><path d="M130.35-8.87L130.35-3.98L130.35-3.98Q128.67-2.93 126.86-2.03L126.86-2.03L126.86-2.03Q125.04-1.13 123.11-0.47L123.11-0.47L123.11-0.47Q121.17 0.20 119.18 0.59L119.18 0.59L119.18 0.59Q117.19 0.98 115.16 0.98L115.16 0.98L115.16 0.98Q111.52 0.98 108.16-0.25L108.16-0.25L108.16-0.25Q104.80-1.48 102.25-3.95L102.25-3.95L102.25-3.95Q99.69-6.41 98.14-10.14L98.14-10.14L98.14-10.14Q96.60-13.87 96.60-18.87L96.60-18.87L96.60-18.87Q96.60-23.55 98.01-27.36L98.01-27.36L98.01-27.36Q99.41-31.17 101.91-33.89L101.91-33.89L101.91-33.89Q104.41-36.60 107.85-38.07L107.85-38.07L107.85-38.07Q111.29-39.53 115.39-39.53L115.39-39.53L115.39-39.53Q119.10-39.53 121.91-38.30L121.91-38.30L121.91-38.30Q124.73-37.07 126.60-34.90L126.60-34.90L126.60-34.90Q128.48-32.73 129.41-29.71L129.41-29.71L129.41-29.71Q130.35-26.68 130.35-23.13L130.35-23.13L130.35-22.07L130.35-22.07Q130.35-21.45 130.27-20.90L130.27-20.90L104.34-20.90L104.34-20.90Q104.34-17.85 104.98-14.80L104.98-14.80L104.98-14.80Q105.63-11.76 107.15-9.34L107.15-9.34L107.15-9.34Q108.67-6.91 111.25-5.41L111.25-5.41L111.25-5.41Q113.83-3.91 117.70-3.91L117.70-3.91L117.70-3.91Q119.41-3.91 121.09-4.36L121.09-4.36L121.09-4.36Q122.77-4.80 124.39-5.51L124.39-5.51L124.39-5.51Q126.02-6.21 127.50-7.09L127.50-7.09L127.50-7.09Q128.98-7.97 130.35-8.87L130.35-8.87zM122.34-24.49L122.34-26.25L122.34-26.25Q122.34-28.24 121.88-29.94L121.88-29.94L121.88-29.94Q121.41-31.64 120.45-32.89L120.45-32.89L120.45-32.89Q119.49-34.14 118.03-34.86L118.03-34.86L118.03-34.86Q116.56-35.59 114.57-35.59L114.57-35.59L114.57-35.59Q112.58-35.59 110.86-34.82L110.86-34.82L110.86-34.82Q109.14-34.06 107.83-32.62L107.83-32.62L107.83-32.62Q106.52-31.17 105.72-29.12L105.72-29.12L105.72-29.12Q104.92-27.07 104.77-24.49L104.77-24.49L122.34-24.49" fill="#000000" stroke="none" stroke-width="none" transform="translate(-102.34500122070312,22.494096984863283)" style="fill: rgb(0, 0, 0);"></path></g><g class="path" style="transform: matrix(1, 0, 0, 1, 0, 0); transform-origin: 87.365px -2.1959px; animation: 10s linear 0s infinite normal forwards running tremble-e26b515a-dd98-47e2-a5f7-4b7334b4e6af;"><path d="M205.98-41.76L189.65 0L178.95 0L199.02-41.76L173.44-41.76L173.44-49.38L205.98-49.38L205.98-41.76" fill="#000000" stroke="none" stroke-width="none" transform="translate(-102.34500122070312,22.494096984863283)" style="fill: rgb(0, 0, 0);"></path></g></g>
</g>
</g>
<style id="tremble-e26b515a-dd98-47e2-a5f7-4b7334b4e6af" data-anikit="">@keyframes tremble-e26b515a-dd98-47e2-a5f7-4b7334b4e6af {
  0% { transform: translate(0px,0px) rotate(0deg) scale(1) }
  3.84615% { transform: translate(0.56696px,0.11787px) rotate(-4.46983deg) scale(1.03643) }
  7.69231% { transform: translate(-0.1117px,1.48042px) rotate(-0.94555deg) scale(0.94012) }
  11.53846% { transform: translate(0.46198px,-1.45685px) rotate(-3.58349deg) scale(0.88627) }
  15.38462% { transform: translate(-0.22277px,0.47689px) rotate(-1.8847deg) scale(0.91363) }
  19.23077% { transform: translate(0.35443px,-0.58717px) rotate(-2.67288deg) scale(1.00285) }
  23.07692% { transform: translate(0.87905px,0.69382px) rotate(6.81014deg) scale(1.09002) }
  26.92308% { transform: translate(0.24491px,1.2677px) rotate(-1.74417deg) scale(1.11275) }
  30.76923% { transform: translate(0.7861px,-1.20078px) rotate(6.02515deg) scale(1.05494) }
  34.61538% { transform: translate(1.21065px,1.12642px) rotate(-9.35864deg) scale(0.95774) }
  38.46154% { transform: translate(0.68879px,-1.08063px) rotate(5.19936deg) scale(0.891) }
  42.30769% { transform: translate(1.14134px,1.15904px) rotate(-8.77745deg) scale(0.90195) }
  46.15385% { transform: translate(0.58765px,0.85267px) rotate(4.33836deg) scale(0.98271) }
  50% { transform: translate(1.0657px,-0.75306px) rotate(-8.13681deg) scale(1.07613) }
  53.84615% { transform: translate(1.38563px,0.64879px) rotate(10.6557deg) scale(1.11496) }
  57.69231% { transform: translate(0.98414px,-1.40162px) rotate(-7.44107deg) scale(1.07175) }
  61.53846% { transform: translate(1.33901px,1.43927px) rotate(10.26401deg) scale(0.97709) }
  65.38462% { transform: translate(0.89711px,0.30155px) rotate(-6.69494deg) scale(0.89909) }
  69.23077% { transform: translate(1.28495px,-0.18515px) rotate(9.80281deg) scale(0.89296) }
  73.07692% { transform: translate(1.48214px,0.06761px) rotate(-11.36914deg) scale(0.96358) }
  76.92308% { transform: translate(1.22375px,-1.49892px) rotate(9.27522deg) scale(1.05989) }
  80.76923% { transform: translate(1.46083px,1.4898px) rotate(-11.1884deg) scale(1.11373) }
  84.61538% { transform: translate(1.48118px,-1.47147px) rotate(11.34214deg) scale(1.08603) }
  88.46154% { transform: translate(1.43142px,0.41231px) rotate(-10.9319deg) scale(0.99714) }
  92.30769% { transform: translate(1.4947px,-0.52436px) rotate(11.45987deg) scale(0.90997) }
  96.15385% { transform: translate(1.39406px,-1.35698px) rotate(-10.60136deg) scale(0.88726) }
  100% { transform: translate(0,0) rotate(0) scale(1) }
}</style></svg>